#define lambda_width 16
#define lambda_height 16
static unsigned char lambda_bits[] = {
   0x00, 0x00, 0x00, 0x00, 0x60, 0x00, 0xd0, 0x00, 0x80, 0x01, 0x80, 0x01,
   0x80, 0x01, 0x80, 0x01, 0xc0, 0x01, 0x60, 0x01, 0x20, 0x03, 0x30, 0x07,
   0x18, 0x0e, 0x18, 0x1c, 0x00, 0x00, 0x00, 0x00 };
